<svg width="48" height="49" viewBox="0 0 48 49" version="1.1" xmlns="http://www.w3.org/2000/svg" xmlns:xlink="http://www.w3.org/1999/xlink"><title>Untitled 4</title><desc>Created with Sketch.</desc><defs><path id="path-1" d="M0,47.5 L47.5,47.5 L47.5,0 L0,0 L0,47.5 L0,47.5 Z"/></defs><g id="Page-1" stroke="none" stroke-width="1" fill="none" fill-rule="evenodd"><g id="2705"><g id="g10" transform="translate(24.000000, 24.500000) scale(1, -1) translate(-24.000000, -24.500000) translate(0.000000, 0.500000)"><g id="g12"><g id="g14-Clipped"><mask id="mask-2" fill="#fff"><use xlink:href="#path-1"/></mask><g id="g14" mask="url(#mask-2)"><g id="g20"><g transform="translate(1.250000, 1.250000)"><rect id="Rectangle-1" fill="#35B46F" x="0" y="0" width="45" height="45" rx="8"/></g></g></g></g></g></g></g><path d="M10.6073966,28.7489927 C9.63003229,27.5544363 9.84722435,25.7626017 11.1503768,24.7852374 C12.3449331,23.9164692 14.1367677,24.1336612 15.059834,25.3282176 L19.8380595,31.6810856 L31.9465172,12.2966936 C32.7609875,10.9935412 34.552822,10.613455 35.8559744,11.4279253 C37.1591268,12.2423955 37.5392129,14.0342301 36.7247427,15.3373825 L22.5529603,38.1968476 C22.0642781,38.9570198 21.1955099,39.5 20.2724436,39.5 L20.1095495,39.5 C19.2407813,39.5 18.426311,39.1199139 17.8290328,38.3597416 L10.6073966,28.7489927 Z" id="Shape" fill="#FFF"/></g></svg>