<svg xmlns="http://www.w3.org/2000/svg" xmlns:xlink="http://www.w3.org/1999/xlink" height="562" width="562"><defs><circle r="42.81" cy="210.129" cx="341.032" id="A"/></defs><g fill-rule="nonzero" transform="matrix(-1 0 0 1 531 1)" fill="none"><g transform="translate(12)" opacity=".6"><path fill="#e6e2e0" d="M112.848 318.27l-47.582 72.932 92.53 92.53 72.932-47.582z"/><path fill="#aeaeae" d="M387.814 313.006l-151.82-151.82-134.242 20.97-83.473 83.472 108.702 4.57L278.8 422.02l4.57 108.702 83.472-83.473z"/><path fill="#ece5e3" d="M487.255 61.745c-89.728-24.9-173.33 21.51-212.564 60.744L87.687 309.493l151.82 151.82L426.5 274.3c39.235-39.235 85.646-122.837 60.745-212.565z"/><use xlink:href="#A" fill-rule="evenodd" fill="#fff"/><circle r="55.31" cy="210.129" cx="341.032" stroke-width="25" stroke="#11113f"/><path d="M492.624 64.44a11.59 11.59 0 0 0-8.064-8.066c-42.222-11.718-87.955-9.438-132.256 6.6-34.328 12.42-67.714 33.24-91.597 57.126l-36.025 36.025-130.5 20.386a11.59 11.59 0 0 0-6.404 3.254L4.296 263.228A11.59 11.59 0 0 0 12 282.995l82.34 3.463-20.636 20.636a11.59 11.59 0 0 0 0 16.385l12.045 12.044-35.975 55.144c-2.994 4.6-2.365 10.647 1.5 14.522l92.53 92.53c3.875 3.874 9.933 4.507 14.523 1.5l55.14-35.976 12.045 12.045a11.59 11.59 0 0 0 16.385 0l20.636-20.636L266.008 537c.193 4.593 3.084 8.638 7.367 10.307a11.56 11.56 0 0 0 4.205.79 11.59 11.59 0 0 0 8.194-3.393l83.472-83.472a11.59 11.59 0 0 0 3.255-6.404l20.387-130.5 36.024-36.025c23.884-23.884 44.706-57.27 57.126-91.596 16.025-44.302 18.304-90.036 6.586-132.257zM153.55 474.686L74.314 395.45l28.176-43.187 94.245 94.246-43.186 28.176zM412.525 271.9l-78.972 78.973 16.385 16.385 15.156-15.156L350.2 447.52l-62.142 62.143-3.248-77.256 72.372-72.372-16.385-16.385-107.072 107.07-124.75-124.748c-.077-.08-3.64-3.643-10.686-10.688l31.076-31.076 34.995-35.995-16.384-16.385-31.372 32.372-77.256-3.25 62.142-62.142 95.408-14.903-49.156 48.154 16.384 16.385 74.14-73.14 38.832-38.832c32.24-32.236 108.788-80.002 194.864-59.426 20.576 86.077-27.2 162.628-59.428 194.864zM133.4 53.6H187v29.8h-53.6V137h-29.8V83.4H50V53.6h53.6V0h29.8z" fill="#11113f"/></g><path d="M100.53 458.82a11.59 11.59 0 0 0-16.384 0l-62.022 62.023a11.59 11.59 0 0 0 0 16.385 11.56 11.56 0 0 0 8.192 3.393c2.965 0 5.93-1.132 8.192-3.393l62.022-62.023a11.59 11.59 0 0 0 0-16.385zm-36.537-20.153a11.59 11.59 0 0 0 0-16.385 11.59 11.59 0 0 0-16.385 0L3.394 466.5a11.59 11.59 0 0 0 0 16.385 11.55 11.55 0 0 0 8.192 3.393c2.965 0 5.93-1.132 8.192-3.393l44.215-44.217zm58.34 58.34l-44.216 44.216a11.59 11.59 0 0 0 0 16.385 11.55 11.55 0 0 0 16.385-.001l44.216-44.216a11.59 11.59 0 0 0 0-16.385 11.59 11.59 0 0 0-16.384 0z" fill="#ffa235"/></g></svg>