<svg width="48" height="49" viewBox="0 0 48 49" version="1.1" xmlns="http://www.w3.org/2000/svg" xmlns:xlink="http://www.w3.org/1999/xlink"><title>Untitled 5</title><desc>Created with Sketch.</desc><defs><path id="path-1" d="M0,47.5 L47.5,47.5 L47.5,0 L0,0 L0,47.5 L0,47.5 Z"/></defs><g id="Page-1" stroke="none" stroke-width="1" fill="none" fill-rule="evenodd"><g id="274e"><g id="g10" transform="translate(24.000000, 24.500000) scale(1, -1) translate(-24.000000, -24.500000) translate(0.000000, 0.500000)"><g id="g12"><g id="g14-Clipped"><mask id="mask-2" fill="#fff"><use xlink:href="#path-1"/></mask><g id="g14" mask="url(#mask-2)"><g transform="translate(1.250000, 1.250000)"><g id="g20"><rect id="Rectangle-1" fill="#ff5400" x="0" y="0" width="45" height="45" rx="8"/></g><g id="g24" transform="translate(9.661625, 9.242125)"><path d="M16.5704782,12.9235441 L25.0699318,21.4229977 C26.0779394,22.4299735 26.0779394,24.063214 25.0699318,25.0701898 C24.062956,26.0781973 22.4307473,26.0781973 21.4227397,25.0701898 L12.9232861,16.5707362 L4.42383251,25.0701898 C3.4168567,26.0781973 1.78258448,26.0781973 0.775608674,25.0701898 C-0.231367137,24.063214 -0.231367137,22.4299735 0.775608674,21.4229977 L9.27609402,12.9235441 L0.756005661,4.4034557 C-0.252001887,3.39544815 -0.252001887,1.76323941 0.756005661,0.756263595 C1.25949357,0.251743953 1.91980557,0 2.57908584,0 C3.23939785,0 3.89970986,0.251743953 4.40319776,0.756263595 L12.9232861,9.27635196 L21.4227397,0.776898346 C21.9262276,0.27341044 22.5865397,0.0216664877 23.2468517,0.0216664877 C23.9061319,0.0216664877 24.5664439,0.27341044 25.0699318,0.776898346 C26.0779394,1.78490589 26.0779394,3.41711464 25.0699318,4.42409045 L16.5704782,12.9235441 L16.5704782,12.9235441 Z" id="path26" fill="#FFF"/></g></g></g></g></g></g></g></g></svg>